<?xml version="1.0" encoding="UTF-8" standalone="no"?>
<svg
   width="103.03"
   height="18.222"
   version="1.1"
   viewBox="0 0 27.26 4.8213"
   id="svg11"
   sodipodi:docname="dt_text.svg"
   inkscape:version="1.4.3 (0d15f75042, 2025-12-25)"
   xmlns:inkscape="http://www.inkscape.org/namespaces/inkscape"
   xmlns:sodipodi="http://sodipodi.sourceforge.net/DTD/sodipodi-0.dtd"
   xmlns="http://www.w3.org/2000/svg"
   xmlns:svg="http://www.w3.org/2000/svg"
   xmlns:rdf="http://www.w3.org/1999/02/22-rdf-syntax-ns#"
   xmlns:cc="http://creativecommons.org/ns#"
   xmlns:dc="http://purl.org/dc/elements/1.1/">
  <defs
     id="defs11" />
  <sodipodi:namedview
     id="namedview11"
     pagecolor="#ffffff"
     bordercolor="#000000"
     borderopacity="0.25"
     inkscape:showpageshadow="2"
     inkscape:pageopacity="0.0"
     inkscape:pagecheckerboard="0"
     inkscape:deskcolor="#d1d1d1"
     inkscape:zoom="6.1311351"
     inkscape:cx="69.318322"
     inkscape:cy="-15.820888"
     inkscape:window-width="1882"
     inkscape:window-height="1043"
     inkscape:window-x="38"
     inkscape:window-y="0"
     inkscape:window-maximized="1"
     inkscape:current-layer="g9" />
  <metadata
     id="metadata1">
    <rdf:RDF>
      <cc:Work
         rdf:about="">
        <dc:format>image/svg+xml</dc:format>
        <dc:type
           rdf:resource="http://purl.org/dc/dcmitype/StillImage" />
        <dc:title />
      </cc:Work>
    </rdf:RDF>
  </metadata>
  <g
     transform="translate(-15.086 -37.426)"
     id="g11">
    <g
       style="fill:#b2b2b2;font-variant-caps:normal;font-variant-east-asian:normal;font-variant-ligatures:normal;font-variant-numeric:normal;font-variation-settings:'wght' 600;shape-inside:url(#rect38);white-space:pre"
       aria-label="darktable"
       id="g10">
      <g
         transform="matrix(.5924 0 0 .5924 6.1492 15.255)"
         id="g9"
         style="stroke-width:1.00001647;stroke-dasharray:none">
        <path
           style="font-size:8.93271px;line-height:1.1;font-family:'TeX Gyre Chorus';-inkscape-font-specification:'TeX Gyre Chorus';stroke-width:1.00002"
           d="m 21.075202,42.984677 -0.09826,-0.169722 c -0.580627,1.223782 -0.678886,1.277378 -2.215312,1.268445 h -1.688283 l 0.241184,-0.23225 c 0.473433,-0.437703 0.535962,-0.553828 0.75928,-1.48283 0.259048,-1.107656 0.384106,-1.598955 0.500232,-1.947331 0.13399,-0.375174 0.366241,-0.544895 0.741415,-0.544895 0.116125,0 0.196519,0 0.527029,0.01787 l 0.348376,-0.500231 c -0.178654,-0.01787 -0.267981,-0.0268 -0.393039,-0.0268 -0.169722,0 -0.321578,0.01787 -0.473434,0.0536 -0.241183,0.06253 -0.669953,0.366241 -1.027261,0.723549 -0.437703,0.446636 -0.589559,0.85754 -0.937935,2.519024 -0.241183,1.143387 -0.473434,1.473897 -1.036194,1.473897 -0.07146,0 -0.178654,0 -0.276914,-0.0089 -0.125058,0.125058 -0.178654,0.187587 -0.312645,0.357308 l 0.875405,-0.0268 1.366705,0.04466 1.759744,0.07146 c 0.464501,0 0.66102,-0.09826 0.821809,-0.42877 0.107193,-0.205452 0.384107,-0.821809 0.518097,-1.161252 z m 2.295706,0.732482 0.03573,-0.267981 c -0.437703,0.267981 -0.875405,0.491299 -0.9558,0.491299 -0.09826,0 -0.169721,-0.107193 -0.169721,-0.250116 0,-0.321578 0.107192,-0.661021 0.187587,-1.000464 l 0.276914,-1.134454 c 0.04466,-0.187587 0.116125,-0.473433 0.116125,-0.580626 0,-0.07146 -0.0268,-0.116125 -0.107193,-0.116125 -0.205452,0 -1.134454,0.607424 -1.402435,0.786078 l -0.0089,0.259049 c 0.205452,-0.116125 0.52703,-0.33051 0.652088,-0.33051 0.09826,0 0.107192,0.09826 0.107192,0.178654 0,0.19652 -0.196519,0.85754 -0.294779,1.268445 -0.09826,0.410904 -0.259049,0.830742 -0.259049,1.232714 0,0.23225 0.08933,0.375173 0.232251,0.375173 0.151856,0 0.312645,-0.08039 0.830742,-0.419837 0.142923,-0.09826 0.214385,-0.151856 0.75928,-0.491299 z m 0.06253,-4.144777 c -0.160789,-0.259049 -0.169721,-0.285847 -0.259048,-0.491299 -0.0089,-0.03573 -0.0268,-0.0804 -0.04466,-0.116126 -0.0536,0.04466 -0.08933,0.07146 -0.125058,0.09826 -0.241183,0.205453 -0.259048,0.214385 -0.491299,0.375174 0.07146,0.214385 0.133991,0.321578 0.339443,0.62529 l 0.29478,-0.267982 c 0.0536,-0.03573 0.08039,-0.06253 0.285846,-0.223317 z m 3.430159,1.956263 c 0,-0.410904 -0.205452,-0.678886 -0.52703,-0.678886 -0.294779,0 -0.544895,0.133991 -1.438166,0.768213 0.0536,-0.205452 0.08039,-0.348375 0.09826,-0.410904 0.196519,-0.964733 0.196519,-0.964733 0.223317,-1.045127 0.07146,-0.285847 0.205453,-0.634223 0.303712,-0.803944 0.151856,-0.259049 0.312645,-0.339443 0.652088,-0.339443 h 0.250116 0.133991 l 0.366241,-0.518097 c -0.125058,-0.01787 -0.312645,-0.0268 -0.401972,-0.0268 -0.321578,0 -0.482366,0.09826 -1.232714,0.714617 -0.607424,0.491299 -0.607424,0.491299 -0.920069,1.884802 l -0.509165,2.206379 -0.321577,1.357772 0.08933,0.03573 0.285847,-0.241183 c 0.250116,0.08933 0.437702,0.13399 0.607424,0.13399 0.178654,0 0.339443,-0.0536 0.571693,-0.196519 0.187587,-0.125058 0.39304,-0.241183 0.607425,-0.366241 0.312644,-0.169722 0.509164,-0.366241 0.66102,-0.652088 0.285847,-0.509165 0.500232,-1.295243 0.500232,-1.822273 z m -0.991531,1.634686 c -0.241183,0.598492 -0.553828,0.893271 -0.946867,0.893271 -0.178654,0 -0.357309,-0.0536 -0.589559,-0.169721 l 0.473434,-1.902668 c 0.509164,-0.375173 0.821809,-0.535962 1.027261,-0.535962 0.178654,0 0.29478,0.169721 0.29478,0.437703 0,0.357308 -0.107193,0.893271 -0.259049,1.277377 z m 4.296634,-2.24211 c -0.169722,-0.0536 -0.241183,-0.07146 -0.33051,-0.07146 -0.160789,0 -0.348376,0.0804 -0.589559,0.250116 l -0.52703,0.384107 c 0.0089,-0.07146 0.0268,-0.116126 0.0268,-0.142924 0.07146,-0.294779 0.08039,-0.348375 0.08039,-0.393039 0,-0.0536 -0.0536,-0.09826 -0.116125,-0.09826 -0.116125,0 -0.902203,0.384107 -1.447099,0.714617 l -0.0268,0.241183 c 0.482366,-0.250116 0.535963,-0.267981 0.643155,-0.267981 0.116125,0 0.169722,0.06253 0.169722,0.187587 0,0.125058 -0.08933,0.544895 -0.19652,0.929002 l -0.535962,1.956263 0.687818,-0.259049 0.669953,-2.545822 c 0.303713,-0.223318 0.509165,-0.312645 0.750348,-0.312645 0.19652,0 0.312645,0.07146 0.473434,0.276914 z m 2.438623,2.653015 v -0.259049 c -0.330511,0.267981 -0.964733,0.812877 -1.420301,0.812877 -0.500232,0 -0.544896,-0.535963 -0.535963,-0.884339 0.205452,-0.09826 1.080858,-0.75928 1.259512,-0.893271 0.33051,-0.267981 0.571694,-0.553828 0.571694,-0.973665 0,-0.294779 -0.178655,-0.518097 -0.509165,-0.518097 -0.321577,0 -0.598491,0.160789 -0.920069,0.410905 -0.786078,0.607424 -1.062992,1.607887 -1.062992,2.447562 0,0.544895 0.223317,0.929002 0.768213,0.929002 0.687818,0 1.482829,-0.705684 1.849071,-1.071925 z m -0.786079,-1.947331 c 0,0.643155 -0.732482,1.009396 -1.161252,1.339906 0.03573,-0.446635 0.375174,-1.71508 0.884338,-1.71508 0.19652,0 0.276914,0.178654 0.276914,0.375174 z m 9.156023,-0.696751 c 0,-0.616357 -0.321578,-1.080858 -0.929002,-1.34884 -0.384107,-0.169721 -0.839675,-0.241183 -1.706148,-0.294779 l 0.06253,-0.250116 -0.643155,0.267981 c -0.732482,0.125058 -1.196983,0.285847 -1.670416,0.589559 -0.759281,0.491299 -1.125522,1.089791 -1.125522,1.849071 0,0.169722 0.0089,0.276914 0.06253,0.509165 l 0.732482,-0.330511 c -0.0536,-0.23225 -0.06253,-0.339443 -0.06253,-0.500231 0,-1.062993 0.661021,-1.688282 1.9116,-1.81334 l -0.669953,2.661947 c -0.348376,1.491763 -0.580626,1.768677 -1.545359,1.840138 l -0.42877,0.410905 h 1.134454 c 1.473897,0 1.831206,-0.0268 2.304639,-0.19652 0.714617,-0.241183 1.447099,-0.705684 1.795475,-1.134454 0.455568,-0.562761 0.777146,-1.500695 0.777146,-2.259975 z m -0.777146,0.178654 c 0,0.768213 -0.294779,1.724013 -0.696751,2.233177 -0.437703,0.562761 -0.964733,0.777146 -1.884802,0.777146 H 37.484576 L 36.341189,44.0834 c 1.036195,-0.964733 1.036195,-0.964733 1.438167,-2.581553 l 0.491299,-1.938398 c 0.652087,0.0268 0.9558,0.08039 1.232714,0.223318 0.437702,0.23225 0.696751,0.723549 0.696751,1.322041 z m 6.887122,-2.251043 -0.116125,-0.133991 c -0.366241,0.62529 -0.410905,0.669954 -0.732483,0.669954 l -0.56276,-0.01787 -1.759744,-0.07146 c -1.563224,0 -2.724477,0.848608 -2.724477,1.991995 0,0.285846 0.06253,0.535962 0.223318,0.848607 l 0.669953,-0.437703 c -0.169721,-0.437702 -0.205452,-0.571693 -0.205452,-0.821809 0,-0.500232 0.232251,-0.884338 0.669953,-1.089791 0.223318,-0.107192 0.553828,-0.151856 1.027262,-0.151856 0.187587,0 0.366241,0.0089 0.812877,0.04466 l -0.72355,2.912063 c -0.321577,1.313109 -0.491299,1.536426 -1.250579,1.572157 l -0.312645,0.348376 c 2.152783,0 2.286774,-0.01787 3.010323,-0.419837 l 0.01787,-0.07146 c -0.393039,0.0536 -0.964732,0.08933 -1.447099,0.08933 l -0.410904,-0.01787 c 0.687818,-0.580627 0.911136,-0.902204 1.062992,-1.58109 l 0.696752,-2.795938 c 1.170185,0.09826 1.179117,0.09826 1.357772,0.09826 0.419837,0 0.482366,-0.0804 0.696751,-0.964733 z m 0.419839,3.555218 -0.812877,-0.0089 -0.410905,0.0089 c -0.125058,0.125058 -0.276914,0.321578 -0.42877,0.562761 h 0.0804 l 0.786078,-0.01787 c 0.08039,0 0.151856,0 0.384107,0.01787 0.125058,-0.205452 0.259048,-0.393039 0.401972,-0.562761 z m 5.457892,0.571694 -0.09826,-0.169722 c -0.580626,1.223782 -0.678886,1.277378 -2.215312,1.268445 h -1.688282 l 0.241183,-0.23225 c 0.473434,-0.437703 0.535963,-0.553828 0.75928,-1.48283 0.259049,-1.107656 0.384107,-1.598955 0.500232,-1.947331 0.133991,-0.375174 0.366241,-0.544895 0.741415,-0.544895 0.116125,0 0.19652,0 0.52703,0.01787 l 0.348376,-0.500231 c -0.178655,-0.01787 -0.267982,-0.0268 -0.39304,-0.0268 -0.169721,0 -0.321577,0.01787 -0.473433,0.0536 -0.241183,0.06253 -0.669953,0.366241 -1.027262,0.723549 -0.437703,0.446636 -0.589559,0.85754 -0.937934,2.519024 -0.241184,1.143387 -0.473434,1.473897 -1.036195,1.473897 -0.07146,0 -0.178654,0 -0.276914,-0.0089 -0.125058,0.125058 -0.178654,0.187587 -0.312645,0.357308 l 0.875406,-0.0268 1.366705,0.04466 1.759743,0.07146 c 0.464501,0 0.661021,-0.09826 0.82181,-0.42877 0.107192,-0.205452 0.384106,-0.821809 0.518097,-1.161252 z m 3.930394,0.652088 v -0.259049 c -0.169722,0.107193 -0.759281,0.52703 -0.902204,0.52703 -0.08933,0 -0.107193,-0.116125 -0.107193,-0.19652 0,-0.33051 0.401972,-1.965196 0.509165,-2.402899 0.03573,-0.0536 0.214385,-0.276914 0.259048,-0.321577 -0.303712,-0.0804 -0.696751,-0.133991 -1.054059,-0.133991 -0.598492,0 -0.661021,0.06253 -1.071926,0.348376 -0.241183,0.169721 -0.4645,0.267981 -0.634222,0.535962 -0.446635,0.696752 -0.616357,1.598956 -0.616357,2.161716 0,0.267982 0.07146,0.750348 0.384107,0.750348 0.33051,0 1.134454,-0.669953 1.598955,-0.991531 l -0.06253,0.401972 c -0.0536,0.303712 -0.107193,0.580626 0.107192,0.580626 0.223318,0 1.330974,-0.812876 1.590023,-1.000463 z m -1.58109,-0.330511 c -0.267981,0.19652 -0.85754,0.678886 -1.089791,0.678886 -0.23225,0 -0.276914,-0.241183 -0.276914,-0.455568 0,-0.571693 0.178655,-1.223781 0.410905,-1.679349 0.151856,-0.312645 0.294779,-0.571694 0.696751,-0.571694 0.223318,0 0.500232,0.06253 0.72355,0.107193 z m 5.046979,-1.777609 c 0,-0.410904 -0.205453,-0.678886 -0.52703,-0.678886 -0.29478,0 -0.544896,0.133991 -1.438167,0.768213 0.0536,-0.205452 0.08039,-0.348375 0.09826,-0.410904 0.19652,-0.964733 0.19652,-0.964733 0.223318,-1.045127 0.07146,-0.285847 0.205452,-0.634223 0.303712,-0.803944 0.151856,-0.259049 0.312645,-0.339443 0.652088,-0.339443 h 0.250116 0.13399 l 0.366241,-0.518097 c -0.125057,-0.01787 -0.312644,-0.0268 -0.401971,-0.0268 -0.321578,0 -0.482367,0.09826 -1.232714,0.714617 -0.607425,0.491299 -0.607425,0.491299 -0.920069,1.884802 l -0.509165,2.206379 -0.321577,1.357772 0.08933,0.03573 0.285846,-0.241183 c 0.250116,0.08933 0.437703,0.13399 0.607425,0.13399 0.178654,0 0.339443,-0.0536 0.571693,-0.196519 0.187587,-0.125058 0.393039,-0.241183 0.607424,-0.366241 0.312645,-0.169722 0.509165,-0.366241 0.661021,-0.652088 0.285846,-0.509165 0.500232,-1.295243 0.500232,-1.822273 z m -0.991531,1.634686 c -0.241183,0.598492 -0.553828,0.893271 -0.946867,0.893271 -0.178655,0 -0.357309,-0.0536 -0.589559,-0.169721 l 0.473433,-1.902668 c 0.509165,-0.375173 0.82181,-0.535962 1.027262,-0.535962 0.178654,0 0.294779,0.169721 0.294779,0.437703 0,0.357308 -0.107192,0.893271 -0.259048,1.277377 z"
           id="text11"
           aria-label="Libre DT-Lab" />
      </g>
    </g>
  </g>
</svg>
